<svg id="_x33_0" enable-background="new 0 0 64 64" height="512" viewBox="0 0 64 64" width="512" xmlns="http://www.w3.org/2000/svg"><g fill="#f0bc5e"><path d="m27 34h10l-5 15z"/><path d="m11 34h8l5 14z"/><path d="m53 34h-8l-5 14z"/></g><path d="m25.612 33 6.388 19.162 6.388-19.162zm10 2-.667 2h-5.891l-.667-2zm-5.891 4h4.558l-.667 2h-3.225zm1.333 4h1.892l-.946 2.838z"/><path d="m19.705 33h-10.998l17.871 19.246zm1.717 10.754-4.419-4.758 2.721.004zm-3.127-8.754.714 1.998-3.866-.006-1.85-1.992z"/><path d="m44.295 33-6.873 19.246 17.871-19.246zm6.412 2-1.857 2h-3.859l.714-2zm-6.431 4h2.716l-4.414 4.754z"/><path d="m25 27h14v-10h-14zm10-8h2v2h-2zm0 4h2v2h-2zm-4-4h2v2h-2zm0 4h2v2h-2zm-4-4h2v2h-2zm0 4h2v2h-2z"/><path d="m23 27v-9l-12 9zm-2-2h-4l4-3z"/><path d="m41 18v9h12zm2 4 4 3h-4z"/><path d="m42.351 13h-7.351v-4h-2v4h-2v-4h-2v4h-7.351l-21.119 16.895 31.47 33.567 31.47-33.567zm-20 2h19.299l17.499 14h-54.297zm-18.043 16h16.957l8.478 27.131zm19.052 0h17.28l-8.64 27.646zm19.375 0h16.957l-25.436 27.132z"/><path d="m32 11c-2.757 0-5-2.243-5-5s2.243-5 5-5 5 2.243 5 5-2.243 5-5 5zm0-6c-.551 0-1 .449-1 1s.449 1 1 1 1-.449 1-1-.449-1-1-1z" fill="#f0bc5e"/><path d="m32 5c-.552 0-1 .448-1 1s.448 1 1 1 1-.448 1-1-.448-1-1-1z"/></svg>