<svg id="_x33_0" enable-background="new 0 0 64 64" height="512" viewBox="0 0 64 64" width="512" xmlns="http://www.w3.org/2000/svg"><path d="m28 13h-2c-1.103 0-2-.897-2-2v-2c0-1.103.897-2 2-2h2c1.103 0 2 .897 2 2v2c0 1.103-.897 2-2 2zm-2-4v2h2.001l-.001-2z"/><path d="m36 13h-2c-1.103 0-2-.897-2-2v-2c0-1.103.897-2 2-2h2c1.103 0 2 .897 2 2v2c0 1.103-.897 2-2 2zm-2-4v2h2.001l-.001-2z"/><path d="m20 13h-2c-1.103 0-2-.897-2-2v-2c0-1.103.897-2 2-2h2c1.103 0 2 .897 2 2v2c0 1.103-.897 2-2 2zm-2-4v2h2.001l-.001-2z"/><path d="m28 21h-2c-1.103 0-2-.897-2-2v-2c0-1.103.897-2 2-2h2c1.103 0 2 .897 2 2v2c0 1.103-.897 2-2 2zm-2-4v2h2.001l-.001-2z"/><path d="m36 21h-2c-1.103 0-2-.897-2-2v-2c0-1.103.897-2 2-2h2c1.103 0 2 .897 2 2v2c0 1.103-.897 2-2 2zm-2-4v2h2.001l-.001-2z"/><path d="m20 21h-2c-1.103 0-2-.897-2-2v-2c0-1.103.897-2 2-2h2c1.103 0 2 .897 2 2v2c0 1.103-.897 2-2 2zm-2-4v2h2.001l-.001-2z"/><path d="m28 29h-2c-1.103 0-2-.897-2-2v-2c0-1.103.897-2 2-2h2c1.103 0 2 .897 2 2v2c0 1.103-.897 2-2 2zm-2-4v2h2.001l-.001-2z"/><path d="m36 29h-2c-1.103 0-2-.897-2-2v-2c0-1.103.897-2 2-2h2c1.103 0 2 .897 2 2v2c0 1.103-.897 2-2 2zm-2-4v2h2.001l-.001-2z"/><path d="m20 29h-2c-1.103 0-2-.897-2-2v-2c0-1.103.897-2 2-2h2c1.103 0 2 .897 2 2v2c0 1.103-.897 2-2 2zm-2-4v2h2.001l-.001-2z"/><path d="m53.122 47.007c-.345-.042-4.719-.581-9.122-1.09v-39.917c0-2.757-2.243-5-5-5h-24c-2.757 0-5 2.243-5 5v41c0 8.822 7.178 16 16 16h2c6.035 0 11.52-3.393 14.243-8.717 4.917-.557 10.483-1.242 10.866-1.289.91-.1 1.891-.891 1.891-1.994v-2c0-1.103-.981-1.894-1.878-1.993zm-25.122 13.993h-2c-7.72 0-14-6.28-14-14v-41c0-1.654 1.346-3 3-3h24c1.654 0 3 1.346 3 3v39.689c-3.347-.377-6.346-.689-7.131-.689-2.274 0-3.464 1.175-3.592 1.309l1.434 1.394c.029-.029.736-.703 2.158-.703 1.183 0 8.725.873 14.131 1.521v2.957c-5.4.648-12.947 1.522-14.131 1.522-1.422 0-2.129-.674-2.158-.703l-1.434 1.394c.128.134 1.318 1.309 3.592 1.309.606 0 2.53-.186 4.915-.444-2.548 3.972-6.965 6.444-11.784 6.444zm24.878-9.993c-.53.065-1.168.143-1.878.23v-2.474c.714.087 1.356.165 1.89.231.037.006.106.052.11.006l.016 1.922c-.019.032-.088.078-.138.085z"/><path d="m30 41h-6c-1.103 0-2-.897-2-2v-2c0-1.103.897-2 2-2h6c1.103 0 2 .897 2 2v2c0 1.103-.897 2-2 2z" fill="#f0bc5e"/><path d="m34 37h2v2h-2z"/><path d="m18 37h2v2h-2z"/><path d="m14 31h26v2h-26z"/><path d="m27 57c-3.859 0-7-3.14-7-7s3.141-7 7-7 7 3.14 7 7-3.141 7-7 7zm0-9c-1.103 0-2 .897-2 2s.897 2 2 2 2-.897 2-2-.897-2-2-2z" fill="#f0bc5e"/><path d="m27 53c-1.654 0-3-1.346-3-3s1.346-3 3-3 3 1.346 3 3-1.346 3-3 3zm0-4c-.552 0-1 .449-1 1s.448 1 1 1 1-.449 1-1-.448-1-1-1z"/><path d="m14 37h2v2h-2z"/><path d="m38 37h2v2h-2z"/></svg>