<svg id="_x33_0" enable-background="new 0 0 64 64" height="512" viewBox="0 0 64 64" width="512" xmlns="http://www.w3.org/2000/svg"><path d="m55 47h-10v-14h10z" fill="#f0bc5e"/><path d="m19 43h2v4h-2z"/><path d="m27 43h2v4h-2z"/><path d="m12 21h24v2h-24z"/><path d="m17 17h14v2h-14z"/><path d="m63 23.586-23-23-10.707 10.707 1.414 1.414 9.293-9.293 19.586 19.586h-14.586v2h16v2h-17v2h13v30h-6v-2h-4v-4h-4v-26h-2v26h-2v-26h2v-2h-34v2h2v26h-2v-26h-2v26h-4v10h50v-2h8v-32h4zm-52 3.414h26v26h-2v-15c0-4.963-4.038-9-9-9h-4c-4.962 0-9 4.037-9 9v15h-2zm4.685 8c1.126-2.361 3.53-4 6.315-4h4c2.785 0 5.189 1.639 6.315 4zm-.685 3c0-.34.033-.672.08-1h7.92v16h-8zm10-1h7.92c.047.328.08.66.08 1v15h-8zm24 24h-46v-6h42v4h4z"/><path d="m34 11h4v2h-4z"/><path d="m40 15h4v2h-4z"/><path d="m46 15h2v2h-2z"/><path d="m46 19h4v2h-4z"/><path d="m52 19h2v2h-2z"/><path d="m40 11h2v2h-2z"/><path d="m44 11h2v2h-2z"/><path d="m38 7h4v2h-4z"/><path d="m49 33v6h-4v2h4v6h2v-6h4v-2h-4v-6z"/><path d="m44.001 29c-.625 0-1.225-.191-1.737-.554l-18.264-15.147-18.202 15.1c-1.46 1.041-3.313.641-4.242-.657-.466-.646-.648-1.442-.513-2.24.135-.799.569-1.492 1.221-1.95l20.007-17.005c.41-.282.868-.463 1.324-.52.283-.031.542-.029.792-.002.501.062.967.248 1.363.538l20.058 17.045c.58.401 1.013 1.095 1.148 1.895.136.797-.046 1.593-.513 2.24-.564.787-1.477 1.257-2.442 1.257z" fill="#f0bc5e"/></svg>