<svg id="Layer_5" enable-background="new 0 0 64 64" height="512" viewBox="0 0 64 64" width="512" xmlns="http://www.w3.org/2000/svg"><g fill="#f0bc5e"><path d="m2 6h22v5h-22z"/><path d="m40 6h22v5h-22z"/><path d="m45 48h12v14h-12z"/><path d="m7 48h12v14h-12z"/><path d="m27 35h10v10h-10z"/></g><path d="m43 47h16v2h-16z"/><path d="m43 19h16v-6h-16zm2-4h12v2h-12z"/><path d="m43 27h16v-6h-16zm2-4h12v2h-12z"/><path d="m43 35h16v-6h-16zm2-4h12v2h-12z"/><path d="m43 43h16v-6h-16zm2-4h12v2h-12z"/><path d="m59 5v-4h-16v4h-4v26h-2v-4h-10v4h-2v-26h-4v-4h-16v4h-4v58h62v-58zm-14-2h12v2h-12zm-16 26h6v2h-6zm-22-26h12v2h-12zm16 58h-20v-54h2 16 2zm12 0h-6v-10h6zm2 0v-12h-10v12h-2v-28h14v28zm24 0h-20v-54h2 16 2z"/><path d="m5 47h16v2h-16z"/><path d="m5 19h16v-6h-16zm2-4h12v2h-12z"/><path d="m5 27h16v-6h-16zm2-4h12v2h-12z"/><path d="m5 35h16v-6h-16zm2-4h12v2h-12z"/><path d="m5 43h16v-6h-16zm2-4h12v2h-12z"/><path d="m35 35h2v2h-2z"/><path d="m31 35h2v2h-2z"/><path d="m27 35h2v2h-2z"/><path d="m27 39h2v2h-2z"/><path d="m31 39h2v2h-2z"/><path d="m35 39h2v2h-2z"/><path d="m31 43h2v2h-2z"/><path d="m35 43h2v2h-2z"/><path d="m27 43h2v2h-2z"/></svg>