<svg id="Layer_5" enable-background="new 0 0 64 64" height="512" viewBox="0 0 64 64" width="512" xmlns="http://www.w3.org/2000/svg"><g><path d="m60 59h-6c-1.105 0-2-.895-2-2s.895-2 2-2h4c1.105 0 2-.895 2-2s-.895-2-2-2h-18c-1.105 0-2-.895-2-2v-13.416l-4 .416v19c0 2.209 1.791 4 4 4h2c1.105 0 2 .895 2 2s.895 2 2 2h16c1.105 0 2-.895 2-2s-.895-2-2-2z" fill="#f0bc5e"/><g><path d="m59 23h-14v-8h14c2.206 0 4 1.794 4 4s-1.794 4-4 4z" fill="#f0bc5e"/></g><g><path d="m37 25.312v-13.312c0-2.757-2.243-5-5-5h-1v-3c0-.551.448-1 1-1h6c.552 0 1 .449 1 1v13c0 1.654 1.346 3 3 3h3v-2h-3c-.552 0-1-.449-1-1v-13c0-1.654-1.346-3-3-3h-6c-1.654 0-3 1.346-3 3v3h-1c-2.757 0-5 2.243-5 5v13.312c-4.239.398-14 1.744-14 5.688v1.221c-6.169 4.141-9.142 9.231-7.574 13.071 1.211 2.963 4.817 4.568 9.574 4.704v6.004c0 3.859 3.141 7 7 7h26c-1.105 0-2-.895-2-2h-24c-2.757 0-5-2.243-5-5v-6.029c3.313-.176 7.048-.992 10.859-2.485 3.92-1.536 7.467-3.646 10.141-6.006v-.58-1.266-.736l-.051.004c-1.288.065-2.617.098-3.949.098-12.294 0-19-2.643-19-4v-1.239c3.602 2.208 11.51 3.239 19 3.239h4.052l4.057-.422c2.733-.299 8.01-1.083 10.892-2.837v1.259c0 .742-2.781 2.668-11 3.577v2.009l.108-.009c2.178-.238 5.979-.782 8.892-1.88v12.303h2v-13.259c1.205-.733 2-1.632 2-2.741v-4c-.001-3.944-9.762-5.29-14.001-5.688zm-24 13.406c4.08 1.551 10.69 2.282 17 2.282.501 0 .996-.028 1.495-.038-2.33 1.812-5.215 3.428-8.366 4.663-3.519 1.378-7.036 2.139-10.129 2.321zm-2 9.259c-3.894-.107-6.833-1.266-7.723-3.441-1.089-2.668 1.19-6.508 5.723-9.871v.335c0 1.07.738 1.987 2 2.761zm14-35.977c0-1.654 1.346-3 3-3h4c1.654 0 3 1.346 3 3v19h-10zm12.896 22.589-3.948.411h-3.948c-12.294 0-19-2.643-19-4 0-.919 3.547-2.878 12-3.676v3.676h-2v2h18v-2h-2v-3.676c8.453.798 12 2.757 12 3.676 0 .745-2.797 2.682-11.104 3.589z"/><path d="m15 55v1c0 1.654 1.346 3 3 3h3v-2h-3c-.552 0-1-.448-1-1v-1z"/><path d="m23 57h2v2h-2z"/></g></g></svg>